# xmcd CD database file
#
# Track frame offsets:
#	150
#	27513
#	52738
#	65263
#	93393
#	118153
#	128205
#	156500
#	179080
#	208365
#	236118
#	266028
#	284683
#	294198
#	313713
#
# Disc length: 4506 seconds
#
# Revision: 1
# Processed by: cddbd v1.4PL0 Copyright (c) Steve Scherf et al.
# Submitted via: CDex 1.50Beta7
#
DISCID=ef11980f
DTITLE=Avishai Cohen - Colors
DYEAR=2000
DGENRE=Jazz
TTITLE0=SHUFFLE
TTITLE1=HEAVY
TTITLE2=EMOTIONS
TTITLE3=SHAY KE
TTITLE4=COLORS
TTITLE5=DE YE TAN DI
TTITLE6=ARKA
TTITLE7=BALKAN
TTITLE8=IB4U
TTITLE9=SLICK
TTITLE10=LE JEFE
TTITLE11=INNER FRAME
TTITLE12=VOICE
TTITLE13=BLUES FOR C
TTITLE14=ADAMA ADMATI
EXTD=YEAR: 2000
EXTT0=
EXTT1=
EXTT2=
EXTT3=
EXTT4=
EXTT5=
EXTT6=
EXTT7=
EXTT8=
EXTT9=
EXTT10=
EXTT11=
EXTT12=
EXTT13=
EXTT14=
PLAYORDER=
